<svg xmlns="http://www.w3.org/2000/svg" width="26.349" height="22.321" viewBox="0 0 26.349 22.321"><g transform="translate(12.979 16.111)"><path d="M252.615,352.2a.42.42,0,0,0-.42.42v.895a.42.42,0,0,0,.839,0v-.895A.42.42,0,0,0,252.615,352.2Z" transform="translate(-252.195 -352.204)"/></g><g transform="translate(0 0)"><path d="M26.095,49.232a.861.861,0,0,0-.613-.254H24.4c-.014,0-.023-.015-.026-.03a8.934,8.934,0,0,0-5.362-6.467,4.432,4.432,0,0,0-1.555-2.532,4.065,4.065,0,0,0-1.766-.813.42.42,0,0,0-.479.415v2.266H13.694a3.1,3.1,0,0,0-5.985.082A8.924,8.924,0,0,0,0,50.74,18.7,18.7,0,0,0,3.379,60.9a1.314,1.314,0,0,0,1.073.554H6.238a1.316,1.316,0,0,0,1.315-1.315v-.581a9.015,9.015,0,0,0,1.371.105h4.056v.476a1.316,1.316,0,0,0,1.315,1.315h1.962a1.321,1.321,0,0,0,1.285-1.039l.215-1a8.929,8.929,0,0,0,6.066-5.117h1.66a.868.868,0,0,0,.867-.867v-3.58A.861.861,0,0,0,26.095,49.232ZM10.713,40.419a2.264,2.264,0,0,1,2.068,3.189H8.644a2.264,2.264,0,0,1,2.068-3.189Zm14.8,13.006a.028.028,0,0,1-.028.028H24.137a8.881,8.881,0,0,0,.409-2.244.42.42,0,0,0-.838-.043,8.09,8.09,0,0,1-5.755,7.321l.586-2.735a.42.42,0,0,0-.821-.176l-1,4.663a.478.478,0,0,1-.465.376H14.293a.476.476,0,0,1-.476-.476v-1.79a.42.42,0,1,0-.839,0v.476H8.923a8.166,8.166,0,0,1-1.371-.116V55.663a.42.42,0,0,0-.839,0v4.475a.476.476,0,0,1-.476.476H4.452a.467.467,0,0,1-.387-.2A17.827,17.827,0,0,1,.839,50.74a8.085,8.085,0,0,1,6.77-7.977,3.114,3.114,0,0,0,.139.844H7.58a.42.42,0,0,0,0,.839h6.266a.42.42,0,1,0,0-.839h-.168a3.113,3.113,0,0,0,.14-.923c0-.009,0-.019,0-.028h1.4v.923a.42.42,0,1,0,.839,0V40.1c.8.3,2.294,1.227,2.294,3.925a.42.42,0,1,0,.839,0c0-.178-.006-.365-.021-.559a8.094,8.094,0,0,1,4.389,5.648.873.873,0,0,0,.848.7h1.077a.028.028,0,0,1,.028.028v3.58Z" transform="translate(0 -39.132)"/></g><g transform="translate(18.39 8.951)"><path d="M360.806,214.229a1.843,1.843,0,0,0-3.43,0,.42.42,0,1,0,.786.293,1,1,0,0,1,1.858,0,.42.42,0,0,0,.786-.293Z" transform="translate(-357.349 -213.061)"/></g><g transform="translate(8.056 7.832)"><g transform="translate(0 0)"><path d="M159.612,194.776v-2.144c.823.1,1.4.481,1.4.828a.42.42,0,1,0,.839,0c0-.858-.954-1.547-2.238-1.672v-.048a.42.42,0,1,0-.839,0v.048c-1.284.125-2.238.814-2.238,1.672,0,1.225,1.21,1.667,2.238,1.956v2.144c-.823-.1-1.4-.481-1.4-.828a.42.42,0,1,0-.839,0c0,.858.954,1.547,2.238,1.672v.048a.42.42,0,1,0,.839,0V198.4c1.284-.125,2.238-.814,2.238-1.672C161.85,195.507,160.639,195.065,159.612,194.776Zm-.839-.239c-1.033-.324-1.4-.619-1.4-1.078,0-.346.575-.728,1.4-.828Zm.839,3.023v-1.906c1.033.324,1.4.619,1.4,1.078C161.01,197.079,160.435,197.46,159.612,197.56Z" transform="translate(-156.535 -191.32)"/></g></g></svg>