<svg data-v-423bf9ae="" xmlns="http://www.w3.org/2000/svg" viewBox="0 0 441 90" class="iconLeft"><!----><!----><!----><g data-v-423bf9ae="" id="c3e52918-ce2d-4482-b23b-3fd0cac1cc16" fill="#371213" transform="matrix(4.765746116638184,0,0,4.765746116638184,104.52684783935547,-5.0124101638793945)"><path d="M6.40 8.89L6.40 8.89Q6.31 8.93 6.38 8.97L6.38 8.97L6.38 8.97Q7.85 9.63 7.85 11.31L7.85 11.31L7.85 11.31Q7.85 12.60 7 13.30L7 13.30L7 13.30Q6.15 14 4.77 14L4.77 14L1.36 14L1.36 14Q1.26 14 1.20 13.94L1.20 13.94L1.20 13.94Q1.15 13.89 1.15 13.79L1.15 13.79L1.15 4.41L1.15 4.41Q1.15 4.31 1.20 4.26L1.20 4.26L1.20 4.26Q1.26 4.20 1.36 4.20L1.36 4.20L4.66 4.20L4.66 4.20Q6.12 4.20 6.92 4.87L6.92 4.87L6.92 4.87Q7.73 5.53 7.73 6.80L7.73 6.80L7.73 6.80Q7.73 8.30 6.40 8.89L6.40 8.89ZM2.56 5.36L2.56 5.36Q2.49 5.36 2.49 5.43L2.49 5.43L2.49 8.36L2.49 8.36Q2.49 8.43 2.56 8.43L2.56 8.43L4.66 8.43L4.66 8.43Q5.47 8.43 5.94 8.02L5.94 8.02L5.94 8.02Q6.41 7.62 6.41 6.92L6.41 6.92L6.41 6.92Q6.41 6.20 5.94 5.78L5.94 5.78L5.94 5.78Q5.47 5.36 4.66 5.36L4.66 5.36L2.56 5.36ZM4.77 12.82L4.77 12.82Q5.57 12.82 6.04 12.38L6.04 12.38L6.04 12.38Q6.51 11.94 6.51 11.19L6.51 11.19L6.51 11.19Q6.51 10.43 6.03 9.99L6.03 9.99L6.03 9.99Q5.56 9.55 4.73 9.55L4.73 9.55L2.56 9.55L2.56 9.55Q2.49 9.55 2.49 9.62L2.49 9.62L2.49 12.75L2.49 12.75Q2.49 12.82 2.56 12.82L2.56 12.82L4.77 12.82ZM13.96 7.08L13.96 7.08Q13.96 6.99 14.01 6.93L14.01 6.93L14.01 6.93Q14.07 6.87 14.17 6.87L14.17 6.87L15.08 6.87L15.08 6.87Q15.18 6.87 15.23 6.93L15.23 6.93L15.23 6.93Q15.29 6.99 15.29 7.08L15.29 7.08L15.29 13.79L15.29 13.79Q15.29 13.89 15.23 13.94L15.23 13.94L15.23 13.94Q15.18 14 15.08 14L15.08 14L14.17 14L14.17 14Q14.07 14 14.01 13.94L14.01 13.94L14.01 13.94Q13.96 13.89 13.96 13.79L13.96 13.79L13.96 13.37L13.96 13.37Q13.96 13.33 13.93 13.32L13.93 13.32L13.93 13.32Q13.90 13.31 13.87 13.34L13.87 13.34L13.87 13.34Q13.31 14.10 12.17 14.10L12.17 14.10L12.17 14.10Q11.48 14.10 10.90 13.83L10.90 13.83L10.90 13.83Q10.32 13.57 9.97 13.05L9.97 13.05L9.97 13.05Q9.62 12.53 9.62 11.79L9.62 11.79L9.62 7.08L9.62 7.08Q9.62 6.99 9.67 6.93L9.67 6.93L9.67 6.93Q9.73 6.87 9.83 6.87L9.83 6.87L10.74 6.87L10.74 6.87Q10.84 6.87 10.89 6.93L10.89 6.93L10.89 6.93Q10.95 6.99 10.95 7.08L10.95 7.08L10.95 11.37L10.95 11.37Q10.95 12.10 11.33 12.52L11.33 12.52L11.33 12.52Q11.72 12.94 12.42 12.94L12.42 12.94L12.42 12.94Q13.12 12.94 13.54 12.51L13.54 12.51L13.54 12.51Q13.96 12.08 13.96 11.37L13.96 11.37L13.96 7.08ZM21.59 4.41L21.59 4.41Q21.59 4.31 21.64 4.26L21.64 4.26L21.64 4.26Q21.70 4.20 21.80 4.20L21.80 4.20L22.72 4.20L22.72 4.20Q22.82 4.20 22.88 4.26L22.88 4.26L22.88 4.26Q22.93 4.31 22.93 4.41L22.93 4.41L22.93 13.79L22.93 13.79Q22.93 13.89 22.88 13.94L22.88 13.94L22.88 13.94Q22.82 14 22.72 14L22.72 14L21.80 14L21.80 14Q21.70 14 21.64 13.94L21.64 13.94L21.64 13.94Q21.59 13.89 21.59 13.79L21.59 13.79L21.59 13.43L21.59 13.43Q21.59 13.38 21.56 13.37L21.56 13.37L21.56 13.37Q21.53 13.36 21.50 13.38L21.50 13.38L21.50 13.38Q21.20 13.73 20.78 13.92L20.78 13.92L20.78 13.92Q20.37 14.11 19.88 14.11L19.88 14.11L19.88 14.11Q18.87 14.11 18.21 13.62L18.21 13.62L18.21 13.62Q17.54 13.12 17.23 12.21L17.23 12.21L17.23 12.21Q16.98 11.51 16.98 10.42L16.98 10.42L16.98 10.42Q16.98 9.39 17.19 8.72L17.19 8.72L17.19 8.72Q17.49 7.80 18.16 7.28L18.16 7.28L18.16 7.28Q18.84 6.76 19.88 6.76L19.88 6.76L19.88 6.76Q20.37 6.76 20.78 6.94L20.78 6.94L20.78 6.94Q21.20 7.13 21.50 7.48L21.50 7.48L21.50 7.48Q21.53 7.50 21.56 7.50L21.56 7.50L21.56 7.50Q21.59 7.49 21.59 7.45L21.59 7.45L21.59 4.41ZM21.24 12.19L21.24 12.19Q21.57 11.58 21.57 10.43L21.57 10.43L21.57 10.43Q21.57 9.28 21.21 8.64L21.21 8.64L21.21 8.64Q20.80 7.92 20.02 7.92L20.02 7.92L20.02 7.92Q19.21 7.92 18.77 8.60L18.77 8.60L18.77 8.60Q18.33 9.30 18.33 10.44L18.33 10.44L18.33 10.44Q18.33 11.52 18.68 12.18L18.68 12.18L18.68 12.18Q19.08 12.95 20.02 12.95L20.02 12.95L20.02 12.95Q20.82 12.95 21.24 12.19L21.24 12.19ZM29.29 7.08L29.29 7.08Q29.29 6.99 29.34 6.93L29.34 6.93L29.34 6.93Q29.40 6.87 29.50 6.87L29.50 6.87L30.42 6.87L30.42 6.87Q30.52 6.87 30.58 6.93L30.58 6.93L30.58 6.93Q30.63 6.99 30.63 7.08L30.63 7.08L30.63 13.64L30.63 13.64Q30.63 15.32 29.67 16.05L29.67 16.05L29.67 16.05Q28.71 16.79 27.12 16.79L27.12 16.79L27.12 16.79Q26.89 16.79 26.47 16.76L26.47 16.76L26.47 16.76Q26.28 16.76 26.28 16.53L26.28 16.53L26.31 15.71L26.31 15.71Q26.31 15.61 26.38 15.55L26.38 15.55L26.38 15.55Q26.45 15.50 26.54 15.51L26.54 15.51L26.54 15.51Q26.74 15.53 27.09 15.53L27.09 15.53L27.09 15.53Q28.25 15.53 28.77 15.09L28.77 15.09L28.77 15.09Q29.29 14.64 29.29 13.59L29.29 13.59L29.29 13.36L29.29 13.36Q29.29 13.31 29.26 13.31L29.26 13.31L29.26 13.31Q29.23 13.30 29.20 13.33L29.20 13.33L29.20 13.33Q28.60 14 27.50 14L27.50 14L27.50 14Q26.59 14 25.85 13.52L25.85 13.52L25.85 13.52Q25.12 13.05 24.84 12.12L24.84 12.12L24.84 12.12Q24.65 11.51 24.65 10.42L24.65 10.42L24.65 10.42Q24.65 9.25 24.86 8.62L24.86 8.62L24.86 8.62Q25.13 7.78 25.81 7.27L25.81 7.27L25.81 7.27Q26.49 6.76 27.41 6.76L27.41 6.76L27.41 6.76Q28.56 6.76 29.20 7.45L29.20 7.45L29.20 7.45Q29.23 7.49 29.26 7.48L29.26 7.48L29.26 7.48Q29.29 7.46 29.29 7.42L29.29 7.42L29.29 7.08ZM29.20 11.72L29.20 11.72Q29.25 11.49 29.27 11.24L29.27 11.24L29.27 11.24Q29.29 10.99 29.29 10.40L29.29 10.40L29.29 10.40Q29.29 9.81 29.27 9.57L29.27 9.57L29.27 9.57Q29.25 9.32 29.19 9.10L29.19 9.10L29.19 9.10Q29.08 8.58 28.69 8.25L28.69 8.25L28.69 8.25Q28.29 7.92 27.71 7.92L27.71 7.92L27.71 7.92Q27.12 7.92 26.73 8.25L26.73 8.25L26.73 8.25Q26.33 8.58 26.17 9.10L26.17 9.10L26.17 9.10Q26.01 9.52 26.01 10.40L26.01 10.40L26.01 10.40Q26.01 11.37 26.15 11.72L26.15 11.72L26.15 11.72Q26.29 12.24 26.71 12.56L26.71 12.56L26.71 12.56Q27.12 12.89 27.71 12.89L27.71 12.89L27.71 12.89Q28.32 12.89 28.71 12.56L28.71 12.56L28.71 12.56Q29.09 12.24 29.20 11.72L29.20 11.72ZM35.50 12.96L35.50 12.96Q36.64 12.95 37.13 12.08L37.13 12.08L37.13 12.08Q37.20 11.96 37.28 11.96L37.28 11.96L37.28 11.96Q37.35 11.96 37.41 12.00L37.41 12.00L37.98 12.35L37.98 12.35Q38.09 12.42 38.09 12.53L38.09 12.53L38.07 12.64L38.07 12.64Q37.69 13.33 37.00 13.72L37.00 13.72L37.00 13.72Q36.30 14.11 35.38 14.11L35.38 14.11L35.38 14.11Q34.38 14.11 33.70 13.67L33.70 13.67L33.70 13.67Q33.01 13.23 32.66 12.40L32.66 12.40L32.66 12.40Q32.31 11.55 32.31 10.40L32.31 10.40L32.31 10.40Q32.31 9.38 32.47 8.85L32.47 8.85L32.47 8.85Q32.72 7.88 33.47 7.32L33.47 7.32L33.47 7.32Q34.23 6.76 35.31 6.76L35.31 6.76L35.31 6.76Q36.64 6.76 37.34 7.46L37.34 7.46L37.34 7.46Q38.04 8.15 38.25 9.46L38.25 9.46L38.25 9.46Q38.32 9.98 38.35 10.72L38.35 10.72L38.35 10.72Q38.35 10.93 38.14 10.93L38.14 10.93L33.71 10.93L33.71 10.93Q33.64 10.93 33.64 11.00L33.64 11.00L33.64 11.00Q33.67 11.54 33.74 11.76L33.74 11.76L33.74 11.76Q33.89 12.32 34.36 12.64L34.36 12.64L34.36 12.64Q34.82 12.96 35.50 12.96L35.50 12.96ZM35.31 7.92L35.31 7.92Q34.69 7.92 34.31 8.22L34.31 8.22L34.31 8.22Q33.92 8.51 33.78 9.03L33.78 9.03L33.78 9.03Q33.68 9.34 33.66 9.81L33.66 9.81L33.66 9.81Q33.66 9.88 33.73 9.88L33.73 9.88L36.90 9.88L36.90 9.88Q36.97 9.88 36.97 9.81L36.97 9.81L36.97 9.81Q36.95 9.35 36.89 9.13L36.89 9.13L36.89 9.13Q36.75 8.58 36.34 8.25L36.34 8.25L36.34 8.25Q35.92 7.92 35.31 7.92L35.31 7.92ZM43.55 7.77L43.55 7.77Q43.55 7.87 43.50 7.92L43.50 7.92L43.50 7.92Q43.44 7.98 43.34 7.98L43.34 7.98L41.92 7.98L41.92 7.98Q41.85 7.98 41.85 8.05L41.85 8.05L41.85 11.70L41.85 11.70Q41.85 12.31 42.11 12.56L42.11 12.56L42.11 12.56Q42.36 12.81 42.94 12.81L42.94 12.81L43.27 12.81L43.27 12.81Q43.37 12.81 43.43 12.87L43.43 12.87L43.43 12.87Q43.48 12.92 43.48 13.02L43.48 13.02L43.48 13.75L43.48 13.75Q43.48 13.94 43.27 13.97L43.27 13.97L42.70 13.99L42.70 13.99Q41.62 13.99 41.09 13.61L41.09 13.61L41.09 13.61Q40.56 13.23 40.56 12.19L40.56 12.19L40.56 8.05L40.56 8.05Q40.56 7.98 40.49 7.98L40.49 7.98L39.72 7.98L39.72 7.98Q39.62 7.98 39.56 7.92L39.56 7.92L39.56 7.92Q39.51 7.87 39.51 7.77L39.51 7.77L39.51 7.08L39.51 7.08Q39.51 6.99 39.56 6.93L39.56 6.93L39.56 6.93Q39.62 6.87 39.72 6.87L39.72 6.87L40.49 6.87L40.49 6.87Q40.56 6.87 40.56 6.80L40.56 6.80L40.56 5.24L40.56 5.24Q40.56 5.14 40.61 5.08L40.61 5.08L40.61 5.08Q40.67 5.03 40.77 5.03L40.77 5.03L41.64 5.03L41.64 5.03Q41.73 5.03 41.79 5.08L41.79 5.08L41.79 5.08Q41.85 5.14 41.85 5.24L41.85 5.24L41.85 6.80L41.85 6.80Q41.85 6.87 41.92 6.87L41.92 6.87L43.34 6.87L43.34 6.87Q43.44 6.87 43.50 6.93L43.50 6.93L43.50 6.93Q43.55 6.99 43.55 7.08L43.55 7.08L43.55 7.77ZM54.18 14L54.18 14Q54.00 14 53.94 13.83L53.94 13.83L53.45 12.26L53.45 12.26Q53.42 12.21 53.38 12.21L53.38 12.21L49.48 12.21L49.48 12.21Q49.43 12.21 49.41 12.26L49.41 12.26L48.92 13.83L48.92 13.83Q48.86 14 48.68 14L48.68 14L47.68 14L47.68 14Q47.45 14 47.52 13.76L47.52 13.76L50.54 4.37L50.54 4.37Q50.60 4.20 50.78 4.20L50.78 4.20L52.07 4.20L52.07 4.20Q52.25 4.20 52.30 4.37L52.30 4.37L55.36 13.76L55.36 13.76Q55.37 13.79 55.37 13.85L55.37 13.85L55.37 13.85Q55.37 14 55.19 14L55.19 14L54.18 14ZM49.77 11.06L49.77 11.06Q49.76 11.14 49.83 11.14L49.83 11.14L53.03 11.14L53.03 11.14Q53.12 11.14 53.09 11.06L53.09 11.06L51.46 5.84L51.46 5.84Q51.45 5.78 51.42 5.78L51.42 5.78L51.42 5.78Q51.39 5.78 51.38 5.84L51.38 5.84L49.77 11.06ZM62.61 8.67L62.61 8.67Q62.86 9.37 62.86 10.46L62.86 10.46L62.86 10.46Q62.86 11.48 62.65 12.15L62.65 12.15L62.65 12.15Q62.36 13.08 61.68 13.59L61.68 13.59L61.68 13.59Q61.00 14.11 59.96 14.11L59.96 14.11L59.96 14.11Q59.47 14.11 59.06 13.93L59.06 13.93L59.06 13.93Q58.65 13.75 58.34 13.40L58.34 13.40L58.34 13.40Q58.31 13.37 58.28 13.38L58.28 13.38L58.28 13.38Q58.25 13.38 58.25 13.43L58.25 13.43L58.25 16.46L58.25 16.46Q58.25 16.56 58.20 16.62L58.20 16.62L58.20 16.62Q58.14 16.67 58.04 16.67L58.04 16.67L57.12 16.67L57.12 16.67Q57.02 16.67 56.97 16.62L56.97 16.62L56.97 16.62Q56.91 16.56 56.91 16.46L56.91 16.46L56.91 7.08L56.91 7.08Q56.91 6.99 56.97 6.93L56.97 6.93L56.97 6.93Q57.02 6.87 57.12 6.87L57.12 6.87L58.04 6.87L58.04 6.87Q58.14 6.87 58.20 6.93L58.20 6.93L58.20 6.93Q58.25 6.99 58.25 7.08L58.25 7.08L58.25 7.45L58.25 7.45Q58.25 7.49 58.28 7.50L58.28 7.50L58.28 7.50Q58.31 7.52 58.34 7.49L58.34 7.49L58.34 7.49Q58.65 7.14 59.06 6.95L59.06 6.95L59.06 6.95Q59.47 6.76 59.96 6.76L59.96 6.76L59.96 6.76Q60.97 6.76 61.63 7.26L61.63 7.26L61.63 7.26Q62.30 7.76 62.61 8.67L62.61 8.67ZM61.07 12.28L61.07 12.28Q61.52 11.58 61.52 10.43L61.52 10.43L61.52 10.43Q61.52 9.35 61.17 8.69L61.17 8.69L61.17 8.69Q60.76 7.92 59.82 7.92L59.82 7.92L59.82 7.92Q59.02 7.92 58.60 8.68L58.60 8.68L58.60 8.68Q58.27 9.28 58.27 10.44L58.27 10.44L58.27 10.44Q58.27 11.59 58.63 12.24L58.63 12.24L58.63 12.24Q59.04 12.95 59.82 12.95L59.82 12.95L59.82 12.95Q60.63 12.95 61.07 12.28L61.07 12.28ZM70.34 8.67L70.34 8.67Q70.59 9.37 70.59 10.46L70.59 10.46L70.59 10.46Q70.59 11.48 70.38 12.15L70.38 12.15L70.38 12.15Q70.08 13.08 69.41 13.59L69.41 13.59L69.41 13.59Q68.73 14.11 67.69 14.11L67.69 14.11L67.69 14.11Q67.20 14.11 66.79 13.93L66.79 13.93L66.79 13.93Q66.37 13.75 66.07 13.40L66.07 13.40L66.07 13.40Q66.04 13.37 66.01 13.38L66.01 13.38L66.01 13.38Q65.98 13.38 65.98 13.43L65.98 13.43L65.98 16.46L65.98 16.46Q65.98 16.56 65.93 16.62L65.93 16.62L65.93 16.62Q65.87 16.67 65.77 16.67L65.77 16.67L64.85 16.67L64.85 16.67Q64.75 16.67 64.69 16.62L64.69 16.62L64.69 16.62Q64.64 16.56 64.64 16.46L64.64 16.46L64.64 7.08L64.64 7.08Q64.64 6.99 64.69 6.93L64.69 6.93L64.69 6.93Q64.75 6.87 64.85 6.87L64.85 6.87L65.77 6.87L65.77 6.87Q65.87 6.87 65.93 6.93L65.93 6.93L65.93 6.93Q65.98 6.99 65.98 7.08L65.98 7.08L65.98 7.45L65.98 7.45Q65.98 7.49 66.01 7.50L66.01 7.50L66.01 7.50Q66.04 7.52 66.07 7.49L66.07 7.49L66.07 7.49Q66.37 7.14 66.79 6.95L66.79 6.95L66.79 6.95Q67.20 6.76 67.69 6.76L67.69 6.76L67.69 6.76Q68.70 6.76 69.36 7.26L69.36 7.26L69.36 7.26Q70.03 7.76 70.34 8.67L70.34 8.67ZM68.80 12.28L68.80 12.28Q69.24 11.58 69.24 10.43L69.24 10.43L69.24 10.43Q69.24 9.35 68.89 8.69L68.89 8.69L68.89 8.69Q68.49 7.92 67.55 7.92L67.55 7.92L67.55 7.92Q66.75 7.92 66.33 8.68L66.33 8.68L66.33 8.68Q66.00 9.28 66.00 10.44L66.00 10.44L66.00 10.44Q66.00 11.59 66.36 12.24L66.36 12.24L66.36 12.24Q66.77 12.95 67.55 12.95L67.55 12.95L67.55 12.95Q68.36 12.95 68.80 12.28L68.80 12.28Z"></path></g><defs data-v-423bf9ae=""><linearGradient data-v-423bf9ae="" gradientTransform="rotate(25)" id="0ef2c550-514a-4166-9d31-0cad8d49988d" x1="0%" y1="0%" x2="100%" y2="0%"><stop data-v-423bf9ae="" offset="0%" style="stop-color: rgb(193, 115, 105); stop-opacity: 1;"></stop><stop data-v-423bf9ae="" offset="100%" style="stop-color: rgb(169, 181, 169); stop-opacity: 1;"></stop></linearGradient></defs><g data-v-423bf9ae="" id="f728b89e-8c08-4264-a7df-bb1819ec9ec9" transform="matrix(2.8125,0,0,2.8125,0,0)" stroke="none" fill="url(#0ef2c550-514a-4166-9d31-0cad8d49988d)"><path d="M9.382 8.675h13.943v13.943L32 31.293V0H.707zM22.618 23.325H8.675V9.382L0 .707V32h31.293z"></path></g><!----></svg>